<svg width="125" height="51" viewBox="0 0 125 51" fill="none" xmlns="http://www.w3.org/2000/svg">
<path d="M54.2915 35.7988C47.2294 35.7988 43.1939 32.1302 43.1939 22.5917C43.1939 13.6036 47.2294 9.33876 54.2915 9.33876C57.7767 9.33876 60.7116 11.0355 62.2708 13.1908C62.6377 13.6494 63.0504 13.787 63.4631 13.787C64.2885 13.787 64.9306 13.145 64.9306 12.3195C64.9306 11.9985 64.8388 11.6775 64.6096 11.3565C62.4542 8.37574 58.648 6.49556 54.2915 6.49556C45.3951 6.49556 39.9838 11.7234 39.9838 22.5917C39.9838 33.8728 45.3951 38.642 54.2915 38.642C59.8403 38.642 63.0504 36.1657 65.2516 33.5976C65.6643 33.0932 65.8477 32.6346 65.8477 32.0843V24.0592C65.8477 23.2796 65.1599 22.6376 64.4261 22.6376H55.1628C54.3832 22.6376 53.7412 23.2796 53.7412 24.0592C53.7412 24.8388 54.3832 25.4808 55.1628 25.4808H62.8211V32.1302C61.3078 34.0104 58.5563 35.7988 54.2915 35.7988ZM88.8265 38C89.6061 38 90.2481 37.358 90.2481 36.5784C90.2481 35.7988 89.6061 35.1568 88.8265 35.1568H75.1608V23.8757H85.2496C86.0292 23.8757 86.6712 23.2337 86.6712 22.4541C86.6712 21.6746 86.0292 21.0325 85.2496 21.0325H75.1608V9.98077H88.3221C89.1017 9.98077 89.7437 9.33876 89.7437 8.55917C89.7437 7.77959 89.1017 7.13757 88.3221 7.13757H73.6017C72.7304 7.13757 72.0425 7.82544 72.0425 8.69674V36.4408C72.0425 37.3121 72.7304 38 73.6017 38H88.8265ZM108.434 38.642C117.331 38.642 122.742 33.3683 122.742 22.5917C122.742 11.7234 117.331 6.49556 108.434 6.49556C99.5379 6.49556 94.1267 11.7234 94.1267 22.5917C94.1267 33.3683 99.5379 38.642 108.434 38.642ZM108.434 9.33876C115.451 9.33876 119.532 13.6036 119.532 22.5917C119.532 31.534 115.451 35.7988 108.434 35.7988C101.418 35.7988 97.3368 31.534 97.3368 22.5917C97.3368 13.6036 101.418 9.33876 108.434 9.33876Z" fill="#F1F1F1"/>
<path d="M15.1751 11.2345C10.9488 7.55734 5.63505 6.85692 0 6.6568V33.7229C0 33.7229 11.2207 33.923 15.1751 39.2012C19.1295 33.898 30.3254 33.7229 30.3254 33.7229V6.6568C24.6904 6.85692 19.3766 7.55734 15.1751 11.2345ZM15.1751 15.2619C17.0781 17.3882 18.2892 20.2899 17.8443 24.2423C17.8443 24.2423 17.6466 26.2685 15.5705 26.4436H14.8044C12.7283 26.2435 12.5306 24.2423 12.5306 24.2423C12.0363 20.2899 13.272 17.3882 15.1751 15.2619ZM27.1125 31.0213C17.8443 32.5222 15.1751 35.574 15.1751 35.574C15.1751 35.574 12.5058 32.4972 3.23768 31.0213V9.53351C3.23768 9.53351 8.84801 10.2089 13.1237 13.3858C12.061 14.7366 11.0724 16.3376 10.2073 18.2637C6.07992 27.5943 13.791 29.0701 14.8044 29.2202H14.9032L15.1751 29.2453L15.4469 29.2202H15.4964C16.2625 29.1202 24.3444 27.7444 20.1181 18.2637C19.2531 16.3376 18.2892 14.7116 17.2017 13.3858C21.5022 10.2089 27.0878 9.53351 27.0878 9.53351V31.0213H27.1125Z" fill="#F1F1F1"/>
</svg>
