<?xml version="1.0" encoding="UTF-8"?>
<!DOCTYPE svg PUBLIC "-//W3C//DTD SVG 1.1//EN" "http://www.w3.org/Graphics/SVG/1.1/DTD/svg11.dtd">
<svg version="1.1" xmlns="http://www.w3.org/2000/svg" xmlns:xlink="http://www.w3.org/1999/xlink" x="0" y="0" width="54.325" height="53.234" viewBox="0, 0, 54.325, 53.234">
  <g id="Capa_1">
    <path d="M27.672,0.009 C27.333,-0.003 26.993,-0.003 26.653,0.009 C24.412,0.092 22.394,0.854 20.181,2.122 C18.025,3.359 15.543,5.162 12.393,7.451 L12.221,7.575 C9.072,9.864 6.589,11.667 4.747,13.336 C2.857,15.048 1.508,16.732 0.737,18.838 C0.621,19.157 0.516,19.481 0.423,19.807 C-0.192,21.964 -0.091,24.119 0.432,26.615 C0.942,29.048 1.89,31.967 3.093,35.67 L3.158,35.871 C4.362,39.574 5.31,42.492 6.328,44.76 C7.372,47.087 8.557,48.889 10.322,50.273 C10.589,50.483 10.864,50.683 11.146,50.872 C12.921,52.065 14.897,52.639 17.278,52.927 C19.812,53.234 22.979,53.234 27.041,53.234 L27.284,53.234 C31.346,53.234 34.514,53.234 37.047,52.927 C39.429,52.639 41.404,52.065 43.18,50.872 C43.462,50.683 43.737,50.483 44.004,50.273 C45.769,48.889 46.953,47.087 47.998,44.76 C49.016,42.492 49.964,39.574 51.167,35.871 L51.232,35.669 C52.436,31.967 53.384,29.048 53.893,26.615 C54.416,24.119 54.517,21.964 53.903,19.807 C53.81,19.481 53.705,19.157 53.588,18.838 C52.817,16.732 51.469,15.048 49.579,13.336 C47.736,11.667 45.254,9.864 42.104,7.575 L41.933,7.451 C38.783,5.162 36.3,3.359 34.144,2.122 C31.931,0.854 29.913,0.092 27.672,0.009 z M26.786,3.632 C27.037,3.623 27.288,3.623 27.539,3.632 C28.978,3.685 30.411,4.161 32.341,5.267 C34.308,6.395 36.633,8.081 39.888,10.446 C43.142,12.81 45.465,14.501 47.145,16.023 C48.793,17.516 49.689,18.732 50.184,20.084 C50.27,20.32 50.348,20.559 50.416,20.8 C50.811,22.185 50.801,23.695 50.345,25.873 C49.881,28.091 48.995,30.824 47.752,34.65 C46.509,38.476 45.619,41.207 44.691,43.275 C43.78,45.305 42.9,46.532 41.767,47.421 C41.569,47.576 41.366,47.723 41.158,47.863 C40.444,48.343 39.642,48.699 38.642,48.96 L38.642,42.46 C38.642,36.12 33.503,30.981 27.163,30.981 C20.823,30.981 15.684,36.12 15.684,42.46 L15.684,48.96 C14.683,48.699 13.882,48.343 13.168,47.863 C12.959,47.723 12.756,47.576 12.558,47.421 C11.425,46.532 10.546,45.305 9.635,43.275 C8.706,41.207 7.816,38.476 6.573,34.65 C5.33,30.824 4.445,28.091 3.98,25.873 C3.524,23.695 3.515,22.185 3.909,20.8 C3.978,20.559 4.055,20.32 4.142,20.084 C4.637,18.732 5.532,17.516 7.181,16.023 C8.861,14.501 11.184,12.81 14.438,10.446 C17.692,8.081 20.018,6.395 21.984,5.267 C23.914,4.161 25.347,3.685 26.786,3.632 z M27.163,34.606 C31.5,34.606 35.017,38.122 35.017,42.46 L35.017,49.473 C32.979,49.607 30.457,49.609 27.163,49.609 C23.868,49.609 21.347,49.607 19.309,49.473 L19.309,42.46 C19.309,38.122 22.825,34.606 27.163,34.606 z" fill="#2D264B" id="Capa_1"/>
  </g>
</svg>
